HIERARCHY
ROOT joint_0
{
	OFFSET 0.000000 0.000000 0.000000
	CHANNELS 6 Xposition Yposition Zposition Zrotation Yrotation Xrotation 
	JOINT joint_1
	{
		OFFSET 7.745728 2.152245 124.869995
		CHANNELS 3 Zrotation Yrotation Xrotation
		JOINT joint_2
		{
			OFFSET -6.359406 2.617477 113.975952
			CHANNELS 3 Zrotation Yrotation Xrotation
			JOINT joint_3
			{
				OFFSET -8.187927 3.340103 113.713013
				CHANNELS 3 Zrotation Yrotation Xrotation
				JOINT joint_4
				{
					OFFSET 2.859222 5.755905 159.680054
					CHANNELS 3 Zrotation Yrotation Xrotation
					JOINT joint_5
					{
						OFFSET 22.724274 2.598469 88.906982
						CHANNELS 3 Zrotation Yrotation Xrotation
						End Site
						{
							OFFSET 0.000000 0.000000 0.000000
						}
					}
				}
				JOINT joint_6
				{
					OFFSET 2.312134 -31.513222 90.723022
					CHANNELS 3 Zrotation Yrotation Xrotation
					JOINT joint_7
					{
						OFFSET -0.486389 -150.827950 -17.660034
						CHANNELS 3 Zrotation Yrotation Xrotation
						JOINT joint_8
						{
							OFFSET 15.633850 -16.961029 -297.395020
							CHANNELS 3 Zrotation Yrotation Xrotation
							JOINT joint_9
							{
								OFFSET 5.600098 1.609863 -262.782959
								CHANNELS 3 Zrotation Yrotation Xrotation
								End Site
								{
									OFFSET 0.000000 0.000000 0.000000
								}
							}
						}
					}
				}
				JOINT joint_10
				{
					OFFSET 1.012756 37.963039 88.243042
					CHANNELS 3 Zrotation Yrotation Xrotation
					JOINT joint_11
					{
						OFFSET -2.397430 150.471996 -20.492065
						CHANNELS 3 Zrotation Yrotation Xrotation
						JOINT joint_12
						{
							OFFSET -10.575745 12.779427 -297.765015
							CHANNELS 3 Zrotation Yrotation Xrotation
							JOINT joint_13
							{
								OFFSET 196.311081 2.689713 -176.286011
								CHANNELS 3 Zrotation Yrotation Xrotation
								End Site
								{
									OFFSET 0.000000 0.000000 0.000000
								}
							}
						}
					}
				}
			}
		}
	}
	JOINT joint_14
	{
		OFFSET 1.244965 -96.891136 -118.152039
		CHANNELS 3 Zrotation Yrotation Xrotation
		JOINT joint_15
		{
			OFFSET -2.982971 -16.401871 -443.439026
			CHANNELS 3 Zrotation Yrotation Xrotation
			JOINT joint_16
			{
				OFFSET -42.052063 -15.386002 -460.966980
				CHANNELS 3 Zrotation Yrotation Xrotation
				JOINT joint_17
				{
					OFFSET 177.916595 102.818184 -88.655001
					CHANNELS 3 Zrotation Yrotation Xrotation
					End Site
					{
						OFFSET 0.000000 0.000000 0.000000
					}
				}
			}
		}
	}
	JOINT joint_18
	{
		OFFSET 1.788635 96.476997 -118.463074
		CHANNELS 3 Zrotation Yrotation Xrotation
		JOINT joint_19
		{
			OFFSET -9.555542 8.093691 -443.574951
			CHANNELS 3 Zrotation Yrotation Xrotation
			JOINT joint_20
			{
				OFFSET -48.427551 9.415819 -460.500023
				CHANNELS 3 Zrotation Yrotation Xrotation
				JOINT joint_21
				{
					OFFSET 204.978119 20.223980 -87.523996
					CHANNELS 3 Zrotation Yrotation Xrotation
					End Site
					{
						OFFSET 0.000000 0.000000 0.000000
					}
				}
			}
		}
	}
}
MOTION
Frames: 13
Frame Time: 0.016667
1475.597046 -70.409897 1143.029053 2.422701 0.265131 0.976075 -0.390298 0.842009 -0.569525 -0.333608 -0.140208 0.134678 -0.357555 0.159525 -0.073394 -0.093920 1.467726 0.171593 0.000000 0.000000 0.000000 3.238273 -1.296088 3.128754 -0.110761 -0.876606 -4.169826 0.004274 1.228277 0.163097 0.000000 0.000000 0.000000 -1.206831 -2.072381 -0.103718 -1.721034 -2.036234 0.874576 0.397510 49.373401 -1.699597 0.000000 0.000000 0.000000 -9.985873 -0.434691 -1.676564 -10.026710 0.738973 -2.118117 -9.834111 -0.518262 -4.595628 0.000000 0.000000 0.000000 -2.975418 -1.192429 1.058689 -2.854540 2.359220 -1.322505 -2.829342 3.082935 -1.511567 0.000000 0.000000 0.000000 
1475.672241 -70.443726 1143.026001 2.424377 0.265781 0.975903 -0.394405 0.825010 -0.558935 -0.338825 -0.138137 0.131569 -0.362196 0.156430 -0.070665 -0.091336 1.481261 0.159693 0.000000 0.000000 0.000000 3.235358 -1.280839 3.136830 -0.110568 -0.861705 -4.166952 0.004032 1.235198 0.151545 0.000000 0.000000 0.000000 -1.189765 -2.052925 -0.121228 -1.715316 -2.018461 0.865892 0.402523 49.373520 -1.684358 0.000000 0.000000 0.000000 -9.987481 -0.424856 -1.670677 -10.027452 0.728350 -2.123414 -9.835978 -0.521651 -4.594559 0.000000 0.000000 0.000000 -2.976295 -1.187005 1.063503 -2.855424 2.354638 -1.326545 -2.830488 3.083741 -1.512134 0.000000 0.000000 0.000000 
1475.750732 -70.466911 1143.021973 2.425338 0.267166 0.975875 -0.399278 0.806042 -0.547573 -0.344879 -0.135456 0.128840 -0.367729 0.152828 -0.068765 -0.088567 1.493406 0.147268 0.000000 0.000000 0.000000 3.235497 -1.265537 3.144606 -0.110599 -0.846372 -4.164462 0.003843 1.240296 0.142397 0.000000 0.000000 0.000000 -1.167891 -2.033996 -0.139402 -1.710689 -2.001887 0.860622 0.406731 49.372274 -1.670392 0.000000 0.000000 0.000000 -9.988733 -0.416582 -1.666660 -10.028003 0.719602 -2.126889 -9.837360 -0.525312 -4.593096 0.000000 0.000000 0.000000 -2.976749 -1.183177 1.066998 -2.855856 2.352270 -1.329821 -2.831223 3.082859 -1.512357 0.000000 0.000000 0.000000 
1475.833984 -70.462029 1143.011963 2.425617 0.269486 0.978272 -0.404786 0.784554 -0.537163 -0.351557 -0.131761 0.126619 -0.373849 0.147815 -0.066871 -0.085583 1.503494 0.134290 0.000000 0.000000 0.000000 3.237376 -1.249155 3.147918 -0.111105 -0.829732 -4.161232 0.003755 1.239972 0.137687 0.000000 0.000000 0.000000 -1.141092 -2.016028 -0.157959 -1.708156 -1.987046 0.857734 0.409113 49.370254 -1.659318 0.000000 0.000000 0.000000 -9.989558 -0.413535 -1.671475 -10.028805 0.719414 -2.123770 -9.837850 -0.531898 -4.589518 0.000000 0.000000 0.000000 -2.976810 -1.183615 1.064590 -2.855849 2.357155 -1.330651 -2.831616 3.076293 -1.511869 0.000000 0.000000 0.000000 
1475.922974 -70.436005 1142.999023 2.424989 0.272668 0.981880 -0.410412 0.760559 -0.526684 -0.358386 -0.127610 0.124840 -0.380148 0.141983 -0.065430 -0.082585 1.512488 0.121410 0.000000 0.000000 0.000000 3.239317 -1.232050 3.149168 -0.111991 -0.812343 -4.158565 0.003761 1.236477 0.137131 0.000000 0.000000 0.000000 -1.111059 -1.998825 -0.177497 -1.706972 -1.973458 0.858243 0.410497 49.367863 -1.649935 0.000000 0.000000 0.000000 -9.990052 -0.413640 -1.681968 -10.029687 0.724139 -2.115645 -9.837601 -0.539909 -4.584766 0.000000 0.000000 0.000000 -2.976487 -1.186883 1.058644 -2.855415 2.366748 -1.330178 -2.831675 3.066321 -1.510899 0.000000 0.000000 0.000000 
1476.000610 -70.407715 1142.984009 2.424798 0.274286 0.984772 -0.417362 0.741749 -0.514398 -0.366529 -0.124751 0.122898 -0.387791 0.137441 -0.063492 -0.079126 1.517573 0.107268 0.000000 0.000000 0.000000 3.245720 -1.217045 3.148661 -0.112868 -0.796528 -4.154853 0.003787 1.231314 0.137542 0.000000 0.000000 0.000000 -1.077034 -1.984821 -0.198153 -1.706082 -1.963579 0.860520 0.411600 49.365221 -1.641233 0.000000 0.000000 0.000000 -9.990547 -0.413219 -1.690891 -10.030546 0.729759 -2.109860 -9.837615 -0.548090 -4.580030 0.000000 0.000000 0.000000 -2.976178 -1.189873 1.052465 -2.855004 2.378004 -1.328417 -2.831694 3.055082 -1.509787 0.000000 0.000000 0.000000 
1476.049927 -70.386864 1142.968994 2.425267 0.272059 0.984287 -0.426509 0.734233 -0.494822 -0.377237 -0.123475 0.117391 -0.397723 0.136130 -0.059324 -0.075677 1.517473 0.093883 0.000000 0.000000 0.000000 3.260202 -1.206957 3.147320 -0.113684 -0.784666 -4.151491 0.003839 1.224768 0.139193 0.000000 0.000000 0.000000 -1.037958 -1.976723 -0.222558 -1.704291 -1.960139 0.865872 0.413592 49.363678 -1.632203 0.000000 0.000000 0.000000 -9.990877 -0.409060 -1.691286 -10.030834 0.732870 -2.112597 -9.838279 -0.554729 -4.576457 0.000000 0.000000 0.000000 -2.976144 -1.190380 1.049125 -2.854894 2.389941 -1.324543 -2.831788 3.044011 -1.508726 0.000000 0.000000 0.000000 
1476.077148 -70.366432 1142.953003 2.426128 0.266527 0.981522 -0.437697 0.736813 -0.469256 -0.390272 -0.125128 0.108342 -0.409685 0.138164 -0.051948 -0.071870 1.511545 0.079907 0.000000 0.000000 0.000000 3.282078 -1.200752 3.143889 -0.114496 -0.775803 -4.148226 0.003909 1.216342 0.141774 0.000000 0.000000 0.000000 -0.992874 -1.973830 -0.251515 -1.702108 -1.962581 0.874782 0.416058 49.363348 -1.623018 0.000000 0.000000 0.000000 -9.991128 -0.402707 -1.686399 -10.030853 0.736060 -2.121290 -9.839471 -0.561023 -4.573307 0.000000 0.000000 0.000000 -2.976224 -1.189085 1.047143 -2.854917 2.403507 -1.318968 -2.831891 3.032099 -1.507588 0.000000 0.000000 0.000000 
1476.111572 -70.353966 1142.941040 2.427909 0.261937 0.979449 -0.445387 0.736672 -0.447701 -0.399614 -0.124359 0.100636 -0.418020 0.137497 -0.046282 -0.068528 1.508636 0.067315 0.000000 0.000000 0.000000 3.292986 -1.193437 3.143907 -0.115068 -0.767138 -4.144617 0.003954 1.210998 0.143344 0.000000 0.000000 0.000000 -0.961301 -1.971849 -0.275286 -1.699580 -1.964206 0.881048 0.418695 49.362964 -1.614108 0.000000 0.000000 0.000000 -9.991786 -0.395323 -1.682156 -10.031150 0.736325 -2.128595 -9.840825 -0.565946 -4.571046 0.000000 0.000000 0.000000 -2.976618 -1.186738 1.045653 -2.855317 2.412938 -1.314455 -2.832275 3.023357 -1.506884 0.000000 0.000000 0.000000 
1476.176514 -70.361061 1142.939941 2.432613 0.261801 0.981094 -0.443930 0.726013 -0.441614 -0.398729 -0.123535 0.100131 -0.417011 0.135837 -0.046089 -0.066649 1.512932 0.059387 0.000000 0.000000 0.000000 3.273597 -1.181921 3.154058 -0.115230 -0.757846 -4.142261 0.003935 1.213002 0.142361 0.000000 0.000000 0.000000 -0.965879 -1.969287 -0.285434 -1.694918 -1.960560 0.879367 0.422935 49.361787 -1.603394 0.000000 0.000000 0.000000 -9.993750 -0.387579 -1.683172 -10.032629 0.730463 -2.129178 -9.842588 -0.568501 -4.570415 0.000000 0.000000 0.000000 -2.978132 -1.183691 1.044384 -2.856922 2.412714 -1.314487 -2.833852 3.021955 -1.507416 0.000000 0.000000 0.000000 
1476.261841 -70.383163 1142.947021 2.439722 0.264326 0.984999 -0.436011 0.708857 -0.445371 -0.390786 -0.121869 0.102879 -0.409309 0.133025 -0.048526 -0.065484 1.521556 0.053609 0.000000 0.000000 0.000000 3.232406 -1.167878 3.171880 -0.115137 -0.748584 -4.141522 0.003877 1.220042 0.139854 0.000000 0.000000 0.000000 -0.996574 -1.967158 -0.286249 -1.688702 -1.953937 0.872557 0.428376 49.360407 -1.591572 0.000000 0.000000 0.000000 -9.996855 -0.378609 -1.687153 -10.035084 0.719609 -2.125457 -9.844858 -0.569238 -4.571130 0.000000 0.000000 0.000000 -2.980475 -1.179387 1.043375 -2.859461 2.404809 -1.317119 -2.836232 3.026812 -1.508910 0.000000 0.000000 0.000000 
1476.348511 -70.406105 1142.956055 2.444472 0.267057 0.989253 -0.427063 0.690107 -0.450372 -0.381772 -0.118795 0.106198 -0.400493 0.129170 -0.050823 -0.064356 1.530540 0.047924 0.000000 0.000000 0.000000 3.191940 -1.153464 3.186581 -0.114751 -0.738938 -4.136655 0.003785 1.227837 0.135803 0.000000 0.000000 0.000000 -1.028784 -1.965185 -0.286957 -1.684065 -1.947415 0.865094 0.432254 49.357247 -1.582617 0.000000 0.000000 0.000000 -9.999033 -0.370931 -1.691592 -10.036719 0.710139 -2.121921 -9.846315 -0.569826 -4.571525 0.000000 0.000000 0.000000 -2.982129 -1.174535 1.042147 -2.861336 2.396285 -1.319879 -2.837973 3.031773 -1.510142 0.000000 0.000000 0.000000 
1476.426514 -70.420242 1142.963989 2.443613 0.267421 0.991873 -0.422669 0.674612 -0.448739 -0.377756 -0.116402 0.106942 -0.396421 0.125992 -0.051598 -0.062707 1.534952 0.040879 0.000000 0.000000 0.000000 3.174269 -1.140324 3.190969 -0.114030 -0.727993 -4.122948 0.003658 1.233543 0.129934 0.000000 0.000000 0.000000 -1.039336 -1.962512 -0.292964 -1.684502 -1.943358 0.860055 0.431366 49.350338 -1.581354 0.000000 0.000000 0.000000 -9.999081 -0.365593 -1.694277 -10.036537 0.707770 -2.121476 -9.846202 -0.571873 -4.570288 0.000000 0.000000 0.000000 -2.981932 -1.167225 1.041106 -2.861413 2.389186 -1.321314 -2.837959 3.034283 -1.510383 0.000000 0.000000 0.000000 
